<mxfile host="app.diagrams.net" modified="2023-06-17T09:35:34.236Z" agent="Mozilla/5.0 (Macintosh; Intel Mac OS X 10_15_7) AppleWebKit/605.1.15 (KHTML, like Gecko) Version/16.5 Safari/605.1.15" etag="PbuBl24u2Kt8gN59wZ61" version="21.4.0" type="device">
  <diagram name="Seite-1" id="1lOM7LZerqZPnMOpxiHa">
    <mxGraphModel dx="381" dy="319" grid="1" gridSize="10" guides="1" tooltips="1" connect="1" arrows="1" fold="1" page="1" pageScale="1" pageWidth="827" pageHeight="1169" math="0" shadow="0">
      <root>
        <mxCell id="0" />
        <mxCell id="1" parent="0" />
        <mxCell id="IGU2iJWfA923sOXPDM8I-1" value="" style="endArrow=classic;html=1;rounded=0;startArrow=oval;startFill=0;strokeColor=#000000;" edge="1" parent="1">
          <mxGeometry width="50" height="50" relative="1" as="geometry">
            <mxPoint x="280" y="120" as="sourcePoint" />
            <mxPoint x="280" y="280" as="targetPoint" />
          </mxGeometry>
        </mxCell>
        <mxCell id="12iBxm_VB4zqUITPJ39q-1" value="" style="endArrow=classic;html=1;rounded=0;endFill=1;startArrow=oval;startFill=0;" parent="1" edge="1">
          <mxGeometry width="50" height="50" relative="1" as="geometry">
            <mxPoint x="200" y="200" as="sourcePoint" />
            <mxPoint x="280" y="120" as="targetPoint" />
          </mxGeometry>
        </mxCell>
        <mxCell id="12iBxm_VB4zqUITPJ39q-2" value="" style="endArrow=classic;html=1;rounded=0;startArrow=oval;startFill=0;" parent="1" edge="1">
          <mxGeometry width="50" height="50" relative="1" as="geometry">
            <mxPoint x="280" y="120" as="sourcePoint" />
            <mxPoint x="360" y="200" as="targetPoint" />
          </mxGeometry>
        </mxCell>
        <mxCell id="12iBxm_VB4zqUITPJ39q-3" value="" style="endArrow=classic;html=1;rounded=0;startArrow=oval;startFill=0;strokeColor=default;snapToPoint=0;ignoreEdge=0;comic=0;enumerate=0;orthogonal=0;orthogonalLoop=0;flowAnimation=0;noJump=0;backgroundOutline=0;fixDash=0;anchorPointDirection=1;endFill=1;shadow=0;endSize=6;targetPerimeterSpacing=0;startSize=6;sourcePerimeterSpacing=0;" parent="1" edge="1">
          <mxGeometry width="50" height="50" relative="1" as="geometry">
            <mxPoint x="360" y="200" as="sourcePoint" />
            <mxPoint x="200" y="200" as="targetPoint" />
          </mxGeometry>
        </mxCell>
        <mxCell id="uNqrZ6btCF_Ytb-3M43g-1" value="" style="endArrow=classic;html=1;rounded=0;endFill=1;startArrow=oval;startFill=0;" parent="1" edge="1">
          <mxGeometry width="50" height="50" relative="1" as="geometry">
            <mxPoint x="280" y="280" as="sourcePoint" />
            <mxPoint x="360" y="200" as="targetPoint" />
          </mxGeometry>
        </mxCell>
        <mxCell id="uNqrZ6btCF_Ytb-3M43g-2" value="" style="endArrow=classic;html=1;rounded=0;startArrow=oval;startFill=0;" parent="1" edge="1">
          <mxGeometry width="50" height="50" relative="1" as="geometry">
            <mxPoint x="200" y="200" as="sourcePoint" />
            <mxPoint x="280" y="280" as="targetPoint" />
          </mxGeometry>
        </mxCell>
        <mxCell id="IGU2iJWfA923sOXPDM8I-2" value="&lt;i&gt;k = 1&lt;/i&gt;" style="text;strokeColor=none;align=center;fillColor=none;html=1;verticalAlign=middle;whiteSpace=wrap;rounded=0;" vertex="1" parent="1">
          <mxGeometry x="200" y="120" width="40" height="20" as="geometry" />
        </mxCell>
      </root>
    </mxGraphModel>
  </diagram>
</mxfile>
